<mxfile host="app.diagrams.net" agent="Mozilla/5.0 (Windows NT 10.0; Win64; x64) AppleWebKit/537.36 (KHTML, like Gecko) Chrome/139.0.0.0 Safari/537.36" version="28.1.0">
  <diagram name="Page-1" id="_T63fb4z_lcxq9RzYSI0">
    <mxGraphModel dx="2977" dy="3111" grid="1" gridSize="10" guides="1" tooltips="1" connect="1" arrows="1" fold="1" page="1" pageScale="1" pageWidth="1169" pageHeight="1654" math="0" shadow="0">
      <root>
        <mxCell id="0" />
        <mxCell id="1" parent="0" />
        <mxCell id="8mUj4xN0aFMi8aO8UhUG-28" value="&lt;font style=&quot;font-size: 20px;&quot;&gt;&lt;b&gt;START&lt;/b&gt;&lt;/font&gt;" style="ellipse;whiteSpace=wrap;html=1;aspect=fixed;strokeWidth=4;" vertex="1" parent="1">
          <mxGeometry x="360" y="-160" width="120" height="120" as="geometry" />
        </mxCell>
        <mxCell id="8mUj4xN0aFMi8aO8UhUG-29" value="" style="endArrow=classic;html=1;rounded=0;exitX=0.5;exitY=1;exitDx=0;exitDy=0;strokeWidth=4;" edge="1" parent="1" source="8mUj4xN0aFMi8aO8UhUG-28">
          <mxGeometry width="50" height="50" relative="1" as="geometry">
            <mxPoint x="585" y="-30" as="sourcePoint" />
            <mxPoint x="417" y="20" as="targetPoint" />
          </mxGeometry>
        </mxCell>
        <mxCell id="8mUj4xN0aFMi8aO8UhUG-31" value="" style="rhombus;whiteSpace=wrap;html=1;strokeWidth=3;" vertex="1" parent="1">
          <mxGeometry x="354" y="20" width="126" height="120" as="geometry" />
        </mxCell>
        <mxCell id="8mUj4xN0aFMi8aO8UhUG-32" value="" style="endArrow=classic;html=1;rounded=0;exitX=0.5;exitY=1;exitDx=0;exitDy=0;strokeWidth=4;entryX=0.542;entryY=0.005;entryDx=0;entryDy=0;entryPerimeter=0;" edge="1" parent="1">
          <mxGeometry width="50" height="50" relative="1" as="geometry">
            <mxPoint x="416.59999999999997" y="140" as="sourcePoint" />
            <mxPoint x="416.44" y="200.39999999999998" as="targetPoint" />
          </mxGeometry>
        </mxCell>
        <mxCell id="8mUj4xN0aFMi8aO8UhUG-33" value="&lt;font style=&quot;font-size: 20px;&quot;&gt;CHECK CURRENT&amp;nbsp;&lt;/font&gt;&lt;div&gt;&lt;font style=&quot;font-size: 20px;&quot;&gt;TIME&lt;/font&gt;&lt;/div&gt;" style="rounded=1;whiteSpace=wrap;html=1;strokeWidth=3;" vertex="1" parent="1">
          <mxGeometry x="270" y="200" width="290" height="80" as="geometry" />
        </mxCell>
        <mxCell id="8mUj4xN0aFMi8aO8UhUG-34" value="" style="endArrow=classic;html=1;rounded=0;exitX=0.5;exitY=1;exitDx=0;exitDy=0;strokeWidth=4;entryX=0.463;entryY=-0.02;entryDx=0;entryDy=0;entryPerimeter=0;" edge="1" parent="1" source="8mUj4xN0aFMi8aO8UhUG-33" target="8mUj4xN0aFMi8aO8UhUG-65">
          <mxGeometry width="50" height="50" relative="1" as="geometry">
            <mxPoint x="536.88" y="460" as="sourcePoint" />
            <mxPoint x="417" y="370" as="targetPoint" />
          </mxGeometry>
        </mxCell>
        <mxCell id="8mUj4xN0aFMi8aO8UhUG-38" style="edgeStyle=orthogonalEdgeStyle;rounded=0;orthogonalLoop=1;jettySize=auto;html=1;entryX=0.5;entryY=0;entryDx=0;entryDy=0;strokeWidth=4;" edge="1" parent="1" source="8mUj4xN0aFMi8aO8UhUG-35" target="8mUj4xN0aFMi8aO8UhUG-37">
          <mxGeometry relative="1" as="geometry">
            <mxPoint x="960.3137446384804" y="570.0000000000001" as="targetPoint" />
          </mxGeometry>
        </mxCell>
        <mxCell id="8mUj4xN0aFMi8aO8UhUG-58" style="edgeStyle=orthogonalEdgeStyle;rounded=0;orthogonalLoop=1;jettySize=auto;html=1;strokeWidth=4;" edge="1" parent="1" source="8mUj4xN0aFMi8aO8UhUG-35">
          <mxGeometry relative="1" as="geometry">
            <mxPoint x="160" y="730" as="targetPoint" />
          </mxGeometry>
        </mxCell>
        <mxCell id="8mUj4xN0aFMi8aO8UhUG-35" value="&lt;span style=&quot;font-size: 18px;&quot;&gt;IS THE BOWL EMPTY?&lt;/span&gt;" style="shape=hexagon;perimeter=hexagonPerimeter2;whiteSpace=wrap;html=1;fixedSize=1;strokeWidth=4;" vertex="1" parent="1">
          <mxGeometry x="237" y="540" width="360" height="60" as="geometry" />
        </mxCell>
        <mxCell id="8mUj4xN0aFMi8aO8UhUG-37" value="&lt;span style=&quot;font-size: 18px;&quot;&gt;ACTIVATE MOTOR TO DISPENSE FOOD&lt;/span&gt;" style="rounded=1;whiteSpace=wrap;html=1;strokeWidth=3;" vertex="1" parent="1">
          <mxGeometry x="680" y="610" width="240" height="70" as="geometry" />
        </mxCell>
        <mxCell id="8mUj4xN0aFMi8aO8UhUG-39" value="" style="endArrow=classic;html=1;rounded=0;exitX=0.5;exitY=1;exitDx=0;exitDy=0;strokeWidth=4;entryX=0.5;entryY=0;entryDx=0;entryDy=0;" edge="1" parent="1" source="8mUj4xN0aFMi8aO8UhUG-37" target="8mUj4xN0aFMi8aO8UhUG-40">
          <mxGeometry width="50" height="50" relative="1" as="geometry">
            <mxPoint x="809.38" y="680" as="sourcePoint" />
            <mxPoint x="809.5" y="760" as="targetPoint" />
          </mxGeometry>
        </mxCell>
        <mxCell id="8mUj4xN0aFMi8aO8UhUG-40" value="&lt;span style=&quot;font-size: 18px;&quot;&gt;LOG &quot;FOOD DESPENSED&quot;&lt;/span&gt;" style="rounded=1;whiteSpace=wrap;html=1;strokeWidth=3;" vertex="1" parent="1">
          <mxGeometry x="680" y="770" width="240" height="70" as="geometry" />
        </mxCell>
        <mxCell id="8mUj4xN0aFMi8aO8UhUG-41" value="&lt;span style=&quot;font-size: 18px;&quot;&gt;WAIT FOR 10 MINUTES&lt;/span&gt;" style="rounded=1;whiteSpace=wrap;html=1;strokeWidth=3;" vertex="1" parent="1">
          <mxGeometry x="680" y="930" width="240" height="70" as="geometry" />
        </mxCell>
        <mxCell id="8mUj4xN0aFMi8aO8UhUG-42" value="" style="endArrow=classic;html=1;rounded=0;exitX=0.5;exitY=1;exitDx=0;exitDy=0;strokeWidth=4;entryX=0.5;entryY=0;entryDx=0;entryDy=0;" edge="1" parent="1" source="8mUj4xN0aFMi8aO8UhUG-40" target="8mUj4xN0aFMi8aO8UhUG-41">
          <mxGeometry width="50" height="50" relative="1" as="geometry">
            <mxPoint x="809.38" y="840" as="sourcePoint" />
            <mxPoint x="809.5" y="920" as="targetPoint" />
          </mxGeometry>
        </mxCell>
        <mxCell id="8mUj4xN0aFMi8aO8UhUG-45" value="&lt;span style=&quot;font-size: 18px;&quot;&gt;IS FOOD STILL ON BOWL?&lt;/span&gt;" style="shape=hexagon;perimeter=hexagonPerimeter2;whiteSpace=wrap;html=1;fixedSize=1;strokeWidth=4;" vertex="1" parent="1">
          <mxGeometry x="640" y="1090" width="293" height="80" as="geometry" />
        </mxCell>
        <mxCell id="8mUj4xN0aFMi8aO8UhUG-46" value="" style="endArrow=classic;html=1;rounded=0;exitX=0.5;exitY=1;exitDx=0;exitDy=0;strokeWidth=4;entryX=0.5;entryY=0;entryDx=0;entryDy=0;" edge="1" parent="1">
          <mxGeometry width="50" height="50" relative="1" as="geometry">
            <mxPoint x="799.38" y="1000" as="sourcePoint" />
            <mxPoint x="799.38" y="1090" as="targetPoint" />
          </mxGeometry>
        </mxCell>
        <mxCell id="8mUj4xN0aFMi8aO8UhUG-55" style="edgeStyle=orthogonalEdgeStyle;rounded=0;orthogonalLoop=1;jettySize=auto;html=1;exitX=0.538;exitY=1.044;exitDx=0;exitDy=0;exitPerimeter=0;strokeWidth=4;entryX=1.009;entryY=0.503;entryDx=0;entryDy=0;entryPerimeter=0;" edge="1" parent="1" source="8mUj4xN0aFMi8aO8UhUG-47" target="8mUj4xN0aFMi8aO8UhUG-52">
          <mxGeometry relative="1" as="geometry">
            <mxPoint x="860" y="1320.0000000000002" as="targetPoint" />
            <mxPoint x="1040" y="1320" as="sourcePoint" />
            <Array as="points">
              <mxPoint x="1039" y="1320" />
            </Array>
          </mxGeometry>
        </mxCell>
        <mxCell id="8mUj4xN0aFMi8aO8UhUG-47" value="&lt;span style=&quot;font-size: 18px;&quot;&gt;LOG &quot;FOOD IS EATEN, SUCCESSFUL&quot;&lt;/span&gt;" style="rounded=1;whiteSpace=wrap;html=1;strokeWidth=3;" vertex="1" parent="1">
          <mxGeometry x="910" y="1220" width="240" height="70" as="geometry" />
        </mxCell>
        <mxCell id="8mUj4xN0aFMi8aO8UhUG-54" style="edgeStyle=orthogonalEdgeStyle;rounded=0;orthogonalLoop=1;jettySize=auto;html=1;entryX=0;entryY=0.5;entryDx=0;entryDy=0;exitX=0.5;exitY=1;exitDx=0;exitDy=0;strokeWidth=4;" edge="1" parent="1" source="8mUj4xN0aFMi8aO8UhUG-48" target="8mUj4xN0aFMi8aO8UhUG-52">
          <mxGeometry relative="1" as="geometry">
            <mxPoint x="560" y="1320" as="sourcePoint" />
          </mxGeometry>
        </mxCell>
        <mxCell id="8mUj4xN0aFMi8aO8UhUG-48" value="&lt;span style=&quot;font-size: 18px;&quot;&gt;LOG &quot;FOOD NOT EATEN&quot; &amp;amp; TRIGGER BUZZER&lt;/span&gt;" style="rounded=1;whiteSpace=wrap;html=1;strokeWidth=3;" vertex="1" parent="1">
          <mxGeometry x="440" y="1220" width="240" height="70" as="geometry" />
        </mxCell>
        <mxCell id="8mUj4xN0aFMi8aO8UhUG-50" style="edgeStyle=orthogonalEdgeStyle;rounded=0;orthogonalLoop=1;jettySize=auto;html=1;exitX=1;exitY=0.5;exitDx=0;exitDy=0;entryX=0.713;entryY=-0.039;entryDx=0;entryDy=0;entryPerimeter=0;strokeWidth=4;" edge="1" parent="1" source="8mUj4xN0aFMi8aO8UhUG-45" target="8mUj4xN0aFMi8aO8UhUG-47">
          <mxGeometry relative="1" as="geometry" />
        </mxCell>
        <mxCell id="8mUj4xN0aFMi8aO8UhUG-51" style="edgeStyle=orthogonalEdgeStyle;rounded=0;orthogonalLoop=1;jettySize=auto;html=1;exitX=0;exitY=0.5;exitDx=0;exitDy=0;strokeWidth=4;entryX=0.458;entryY=0;entryDx=0;entryDy=0;entryPerimeter=0;" edge="1" parent="1" source="8mUj4xN0aFMi8aO8UhUG-45" target="8mUj4xN0aFMi8aO8UhUG-48">
          <mxGeometry relative="1" as="geometry">
            <mxPoint x="621" y="1123" as="sourcePoint" />
            <mxPoint x="550" y="1210" as="targetPoint" />
            <Array as="points">
              <mxPoint x="550" y="1130" />
            </Array>
          </mxGeometry>
        </mxCell>
        <mxCell id="8mUj4xN0aFMi8aO8UhUG-56" style="edgeStyle=orthogonalEdgeStyle;rounded=0;orthogonalLoop=1;jettySize=auto;html=1;strokeWidth=4;entryX=1.01;entryY=0.502;entryDx=0;entryDy=0;entryPerimeter=0;" edge="1" parent="1" source="8mUj4xN0aFMi8aO8UhUG-52" target="8mUj4xN0aFMi8aO8UhUG-53">
          <mxGeometry relative="1" as="geometry">
            <mxPoint x="620" y="1440" as="targetPoint" />
            <Array as="points">
              <mxPoint x="793" y="1440" />
            </Array>
          </mxGeometry>
        </mxCell>
        <mxCell id="8mUj4xN0aFMi8aO8UhUG-52" value="" style="rhombus;whiteSpace=wrap;html=1;strokeWidth=3;" vertex="1" parent="1">
          <mxGeometry x="730" y="1260" width="126" height="120" as="geometry" />
        </mxCell>
        <mxCell id="8mUj4xN0aFMi8aO8UhUG-53" value="" style="rhombus;whiteSpace=wrap;html=1;strokeWidth=3;" vertex="1" parent="1">
          <mxGeometry x="490" y="1380" width="126" height="120" as="geometry" />
        </mxCell>
        <mxCell id="8mUj4xN0aFMi8aO8UhUG-59" style="edgeStyle=orthogonalEdgeStyle;rounded=0;orthogonalLoop=1;jettySize=auto;html=1;entryX=0;entryY=0.5;entryDx=0;entryDy=0;strokeWidth=4;" edge="1" parent="1" source="8mUj4xN0aFMi8aO8UhUG-57" target="8mUj4xN0aFMi8aO8UhUG-53">
          <mxGeometry relative="1" as="geometry">
            <mxPoint x="170" y="1451.88232421875" as="targetPoint" />
            <Array as="points">
              <mxPoint x="160" y="1440" />
            </Array>
          </mxGeometry>
        </mxCell>
        <mxCell id="8mUj4xN0aFMi8aO8UhUG-57" value="&lt;span style=&quot;font-size: 18px;&quot;&gt;ALERT STAFF TO FILL BOWL&lt;/span&gt;" style="rounded=1;whiteSpace=wrap;html=1;strokeWidth=3;" vertex="1" parent="1">
          <mxGeometry x="50" y="732" width="240" height="70" as="geometry" />
        </mxCell>
        <mxCell id="8mUj4xN0aFMi8aO8UhUG-61" value="&lt;span style=&quot;font-size: 18px;&quot;&gt;PREPARE FOR NEXT FEEDING / RETURN TO IDLE&amp;nbsp;&lt;/span&gt;" style="rounded=1;whiteSpace=wrap;html=1;strokeWidth=3;" vertex="1" parent="1">
          <mxGeometry x="400" y="1560" width="320" height="70" as="geometry" />
        </mxCell>
        <mxCell id="8mUj4xN0aFMi8aO8UhUG-64" style="edgeStyle=orthogonalEdgeStyle;rounded=0;orthogonalLoop=1;jettySize=auto;html=1;entryX=0.476;entryY=0.008;entryDx=0;entryDy=0;entryPerimeter=0;strokeWidth=5;" edge="1" parent="1" source="8mUj4xN0aFMi8aO8UhUG-53" target="8mUj4xN0aFMi8aO8UhUG-61">
          <mxGeometry relative="1" as="geometry" />
        </mxCell>
        <mxCell id="8mUj4xN0aFMi8aO8UhUG-67" style="edgeStyle=orthogonalEdgeStyle;rounded=0;orthogonalLoop=1;jettySize=auto;html=1;entryX=1;entryY=0.5;entryDx=0;entryDy=0;exitX=1;exitY=0.5;exitDx=0;exitDy=0;strokeWidth=4;" edge="1" parent="1" source="8mUj4xN0aFMi8aO8UhUG-65" target="8mUj4xN0aFMi8aO8UhUG-31">
          <mxGeometry relative="1" as="geometry">
            <mxPoint x="780" y="320" as="sourcePoint" />
            <Array as="points">
              <mxPoint x="740" y="410" />
              <mxPoint x="740" y="80" />
            </Array>
          </mxGeometry>
        </mxCell>
        <mxCell id="8mUj4xN0aFMi8aO8UhUG-65" value="&lt;font style=&quot;font-size: 18px;&quot;&gt;IS IT A SCHEDULE FEEDING TIME?&lt;/font&gt;" style="shape=hexagon;perimeter=hexagonPerimeter2;whiteSpace=wrap;html=1;fixedSize=1;strokeWidth=4;" vertex="1" parent="1">
          <mxGeometry x="250" y="380" width="360" height="60" as="geometry" />
        </mxCell>
        <mxCell id="8mUj4xN0aFMi8aO8UhUG-66" style="edgeStyle=orthogonalEdgeStyle;rounded=0;orthogonalLoop=1;jettySize=auto;html=1;entryX=0.538;entryY=-0.016;entryDx=0;entryDy=0;entryPerimeter=0;strokeWidth=4;" edge="1" parent="1">
          <mxGeometry relative="1" as="geometry">
            <mxPoint x="416.67702702702695" y="440.96" as="sourcePoint" />
            <mxPoint x="417.3299999999999" y="540" as="targetPoint" />
          </mxGeometry>
        </mxCell>
        <mxCell id="8mUj4xN0aFMi8aO8UhUG-69" value="&lt;font style=&quot;font-size: 17px;&quot;&gt;NO&lt;/font&gt;" style="text;html=1;align=center;verticalAlign=middle;resizable=0;points=[];autosize=1;strokeColor=none;fillColor=none;" vertex="1" parent="1">
          <mxGeometry x="675" y="380" width="50" height="30" as="geometry" />
        </mxCell>
        <mxCell id="8mUj4xN0aFMi8aO8UhUG-71" value="&lt;span style=&quot;font-size: 17px;&quot;&gt;NO&lt;/span&gt;" style="text;html=1;align=center;verticalAlign=middle;resizable=0;points=[];autosize=1;strokeColor=none;fillColor=none;" vertex="1" parent="1">
          <mxGeometry x="615" y="538" width="50" height="30" as="geometry" />
        </mxCell>
        <mxCell id="8mUj4xN0aFMi8aO8UhUG-72" value="&lt;span style=&quot;font-size: 17px;&quot;&gt;YES&lt;/span&gt;" style="text;html=1;align=center;verticalAlign=middle;resizable=0;points=[];autosize=1;strokeColor=none;fillColor=none;" vertex="1" parent="1">
          <mxGeometry x="180" y="538" width="60" height="30" as="geometry" />
        </mxCell>
        <mxCell id="8mUj4xN0aFMi8aO8UhUG-73" value="&lt;span style=&quot;font-size: 17px;&quot;&gt;YES&lt;/span&gt;" style="text;html=1;align=center;verticalAlign=middle;resizable=0;points=[];autosize=1;strokeColor=none;fillColor=none;" vertex="1" parent="1">
          <mxGeometry x="580" y="1100" width="60" height="30" as="geometry" />
        </mxCell>
        <mxCell id="8mUj4xN0aFMi8aO8UhUG-74" value="&lt;span style=&quot;font-size: 17px;&quot;&gt;NO&lt;/span&gt;" style="text;html=1;align=center;verticalAlign=middle;resizable=0;points=[];autosize=1;strokeColor=none;fillColor=none;" vertex="1" parent="1">
          <mxGeometry x="935" y="1098" width="50" height="30" as="geometry" />
        </mxCell>
      </root>
    </mxGraphModel>
  </diagram>
</mxfile>
